<svg xmlns="http://www.w3.org/2000/svg" width="500" height="500" viewBox="0 0 117.718 129.933"><g transform="translate(-371 -10)"><g transform="translate(380.306 61.497)"><path d="M73.6,187.423h-1.8l6.706-16.151h2.041l6.681,16.151H85.412l-2.065-5.066H75.67Zm9.16-6.52-3.28-8.11-3.231,8.11Z" transform="translate(-71.806 -170.955)" fill="#4ba99c"/><path d="M124.405,187.423H116.63V171.272h1.7v14.583h6.074v1.568Z" transform="translate(-99.914 -170.955)" fill="#4ba99c"/><path d="M151.247,187.423h-7.775V171.272h1.7v14.583h6.074v1.568Z" transform="translate(-116.746 -170.955)" fill="#4ba99c"/><path d="M172.014,178.519h7.265v1.59h-7.265v5.747h7.265v1.567h-8.966V171.273h8.966v1.59h-7.265Z" transform="translate(-133.577 -170.956)" fill="#4ba99c"/><path d="M207.575,179.144h10.739a8.172,8.172,0,0,1-2.733,5.8,8.847,8.847,0,0,1-6.134,2.261,8.641,8.641,0,0,1-6.245-2.442,8.081,8.081,0,0,1-2.526-6.054,7.8,7.8,0,0,1,2.7-5.952,9.6,9.6,0,0,1,10.812-1.2,8.567,8.567,0,0,1,3.208,3.248H215.3a7.248,7.248,0,0,0-5.735-2.839,6.92,6.92,0,0,0-5.054,2.01,6.461,6.461,0,0,0-2.041,4.759,6.593,6.593,0,0,0,2.065,4.975,7.034,7.034,0,0,0,5.054,1.977,6.9,6.9,0,0,0,4.239-1.409,6.493,6.493,0,0,0,2.467-3.7h-8.724v-1.432Z" transform="translate(-152.616 -170.422)" fill="#4ba99c"/><path d="M255.319,172.863v14.561h-1.676V171.272h4.64a7.655,7.655,0,0,1,4.155.932,4.8,4.8,0,0,1,1.64,1.806,5.053,5.053,0,0,1,.6,2.4,4.75,4.75,0,0,1-1.19,3.226,4.177,4.177,0,0,1-2.989,1.476l4.179,6.315h-2.017l-5.126-7.792h1.628a3.9,3.9,0,0,0,2.672-.9,2.93,2.93,0,0,0,1.02-2.306,3.443,3.443,0,0,0-1.24-2.771,2.714,2.714,0,0,0-1.093-.568,5.318,5.318,0,0,0-1.155-.2q-.5-.022-1.543-.023Z" transform="translate(-185.83 -170.955)" fill="#4ba99c"/><path d="M292.152,187.423h-1.7V171.272h1.7Z" transform="translate(-208.912 -170.955)" fill="#4ba99c"/><path d="M299.482,187.423h-1.8l6.706-16.151h2.04l6.682,16.151H311.29l-2.066-5.066h-7.678Zm9.16-6.52-3.28-8.11-3.232,8.11Z" transform="translate(-213.447 -170.955)" fill="#4ba99c"/><path d="M200.537,57.7l1.475-25.362h.141L203.629,57.7Z" transform="translate(-152.529 -83.831)" fill="#bc9f73" fill-rule="evenodd"/><path d="M181.374,85.977l-.24-9.9,3.284,9.383Z" transform="translate(-140.362 -111.261)" fill="#bc9f73" fill-rule="evenodd"/><path d="M150.318,65.168l-7.967-25.483,10.872,24.462Z" transform="translate(-116.043 -88.441)" fill="#bc9f73" fill-rule="evenodd"/><path d="M140.616,100.84l-3.736-9.226,6.414,7.735Z" transform="translate(-112.612 -121.004)" fill="#bc9f73" fill-rule="evenodd"/><path d="M104.058,91.535,87.539,70.218l18.888,19.4Z" transform="translate(-81.672 -107.587)" fill="#bc9f73" fill-rule="evenodd"/><path d="M107.585,128.258l-6.78-7.437,8.768,5.152Z" transform="translate(-89.99 -139.319)" fill="#bc9f73" fill-rule="evenodd"/><path d="M69.933,131.576,46.853,117l24.626,12Z" transform="translate(-56.159 -136.921)" fill="#bc9f73" fill-rule="evenodd"/><path d="M71.478,256.321l-24.626,12,23.081-14.579Z" transform="translate(-56.158 -222.667)" fill="#bc9f73" fill-rule="evenodd"/><path d="M109.575,271.355l-8.767,5.151,6.779-7.436Z" transform="translate(-89.992 -232.281)" fill="#bc9f73" fill-rule="evenodd"/><path d="M106.424,284.369l-18.889,19.4,16.521-21.315Z" transform="translate(-81.669 -240.672)" fill="#bc9f73" fill-rule="evenodd"/><path d="M143.3,294.971l-6.412,7.733,3.735-9.224Z" transform="translate(-112.614 -247.588)" fill="#bc9f73" fill-rule="evenodd"/><path d="M153.222,302.834,142.348,327.3l7.968-25.481Z" transform="translate(-116.041 -252.814)" fill="#bc9f73" fill-rule="evenodd"/><path d="M184.42,307.723l-3.283,9.383.239-9.9Z" transform="translate(-140.364 -256.194)" fill="#bc9f73" fill-rule="evenodd"/><path d="M203.628,309.488l-1.547,26.574-1.545-26.574Z" transform="translate(-152.529 -257.626)" fill="#bc9f73" fill-rule="evenodd"/><path d="M222.464,307.2l.242,9.9-3.285-9.382Z" transform="translate(-164.371 -256.194)" fill="#bc9f73" fill-rule="evenodd"/><path d="M240.761,301.813l7.967,25.482-10.872-24.462Z" transform="translate(-175.931 -252.813)" fill="#bc9f73" fill-rule="evenodd"/><path d="M257.959,293.482,261.7,302.7l-6.415-7.731Z" transform="translate(-186.858 -247.589)" fill="#bc9f73" fill-rule="evenodd"/><path d="M273.543,282.449l16.52,21.317-18.889-19.4Z" transform="translate(-196.824 -240.671)" fill="#bc9f73" fill-rule="evenodd"/><path d="M287.032,269.072l6.78,7.434-8.767-5.149Z" transform="translate(-205.522 -232.282)" fill="#bc9f73" fill-rule="evenodd"/><path d="M298.021,253.736,321.1,268.315l-24.625-12Z" transform="translate(-212.689 -222.666)" fill="#bc9f73" fill-rule="evenodd"/><path d="M296.473,128.994,321.1,117l-23.081,14.579Z" transform="translate(-212.688 -136.922)" fill="#bc9f73" fill-rule="evenodd"/><path d="M285.045,125.971l8.767-5.152-6.78,7.437Z" transform="translate(-205.522 -139.317)" fill="#bc9f73" fill-rule="evenodd"/><path d="M271.174,89.619l18.89-19.4L273.541,91.537Z" transform="translate(-196.824 -107.589)" fill="#bc9f73" fill-rule="evenodd"/><path d="M255.285,99.349l6.411-7.734-3.734,9.226Z" transform="translate(-186.86 -121.005)" fill="#bc9f73" fill-rule="evenodd"/><path d="M237.852,64.149l10.875-24.462-7.969,25.482Z" transform="translate(-175.928 -88.442)" fill="#bc9f73" fill-rule="evenodd"/><path d="M219.42,85.461l3.284-9.384-.238,9.9Z" transform="translate(-164.37 -111.261)" fill="#bc9f73" fill-rule="evenodd"/><g transform="translate(13.353 20.115)"><path d="M108.268,231.033h-.657v-6.672h.657Z" transform="translate(-107.611 -224.361)" fill="#4ba99c"/></g><g transform="translate(14.79 20.116)"><path d="M112.421,231.034v-4.392h-.957V226h.957v-1.633h.648V226h.957v.647h-.957v4.392Z" transform="translate(-111.464 -224.362)" fill="#4ba99c"/></g><g transform="translate(17.586 21.636)"><path d="M123.475,232.793a2.069,2.069,0,0,1-.817.68,2.537,2.537,0,0,1-1.117.249,2.452,2.452,0,0,1-1.849-.766,2.752,2.752,0,0,1,.014-3.754,2.529,2.529,0,0,1,1.891-.765,2.2,2.2,0,0,1,1.877.92v-.807h.629v5.039h-.629Zm0-1.755a1.951,1.951,0,0,0-.577-1.4,1.789,1.789,0,0,0-1.319-.6,1.853,1.853,0,0,0-1.375.591,2.048,2.048,0,0,0-.577,1.492,1.928,1.928,0,0,0,.577,1.426,1.866,1.866,0,0,0,1.356.572,1.808,1.808,0,0,0,1.333-.6A2.046,2.046,0,0,0,123.475,231.037Z" transform="translate(-118.961 -228.438)" fill="#4ba99c"/></g><g transform="translate(23.919 20.115)"><path d="M135.943,231.033v-6.672h.647v6.672Z" transform="translate(-135.943 -224.361)" fill="#4ba99c"/></g><g transform="translate(25.778 20.115)"><path d="M141.575,225.4h-.647v-1.042h.647Zm-.647,5.631v-5.039h.647v5.039Z" transform="translate(-140.928 -224.361)" fill="#4ba99c"/></g><g transform="translate(27.374 21.636)"><path d="M149.722,232.793a2.066,2.066,0,0,1-.817.68,2.537,2.537,0,0,1-1.117.249,2.452,2.452,0,0,1-1.849-.766,2.752,2.752,0,0,1,.014-3.754,2.529,2.529,0,0,1,1.891-.765,2.2,2.2,0,0,1,1.877.92v-.807h.629v5.039h-.629v-.8Zm0-1.755a1.951,1.951,0,0,0-.577-1.4,1.789,1.789,0,0,0-1.319-.6,1.853,1.853,0,0,0-1.375.591,2.048,2.048,0,0,0-.577,1.492,1.928,1.928,0,0,0,.577,1.426,1.866,1.866,0,0,0,1.356.572,1.808,1.808,0,0,0,1.333-.6A2.046,2.046,0,0,0,149.722,231.037Z" transform="translate(-145.208 -228.438)" fill="#4ba99c"/></g><g transform="translate(33.697 20.115)"><path d="M162.164,228.567h.629v.572a2,2,0,0,1,1.586-.675,1.842,1.842,0,0,1,1.67.8,1.862,1.862,0,0,1,.263.695,6.247,6.247,0,0,1,.066,1.014v2.636h-.638v-2.824a2.012,2.012,0,0,0-.338-1.291,1.348,1.348,0,0,0-1.1-.408,1.376,1.376,0,0,0-1.295.685,1.345,1.345,0,0,0-.15.418,2.982,2.982,0,0,0-.056.418c-.006.119-.009.3-.009.553v2.449h-.629Z" transform="translate(-162.164 -226.934)" fill="#4ba99c"/><path d="M183.975,225.018v6.015h-.647v-6.672h1.793a2.8,2.8,0,0,1,1.6.384,1.941,1.941,0,0,1,.634.747,2.2,2.2,0,0,1,.23.99,2.04,2.04,0,0,1-.46,1.332,1.575,1.575,0,0,1-1.155.61l1.614,2.609h-.779l-1.98-3.219h.629a1.448,1.448,0,0,0,1.033-.37,1.249,1.249,0,0,0,.394-.953,1.468,1.468,0,0,0-.479-1.145,1.032,1.032,0,0,0-.422-.234,1.915,1.915,0,0,0-.446-.085q-.192-.009-.6-.009h-.967Z" transform="translate(-175.435 -224.361)" fill="#4ba99c"/></g><g transform="translate(46.432 21.608)"><path d="M201.531,231.226h-4.552a1.961,1.961,0,0,0,.606,1.338,1.878,1.878,0,0,0,1.328.5,1.845,1.845,0,0,0,1.018-.291,1.941,1.941,0,0,0,.709-.825h.732a2.86,2.86,0,0,1-.981,1.291,2.611,2.611,0,0,1-3.327-.343,2.77,2.77,0,0,1-.014-3.777,2.549,2.549,0,0,1,1.91-.755,2.41,2.41,0,0,1,1.849.779,2.879,2.879,0,0,1,.723,2.037v.047Zm-.714-.544a1.869,1.869,0,0,0-1.952-1.708,1.779,1.779,0,0,0-1.239.46,2.046,2.046,0,0,0-.629,1.248Z" transform="translate(-196.313 -228.364)" fill="#4ba99c"/></g><g transform="translate(52.232 21.617)"><path d="M211.863,231.973h.666v.019a1.132,1.132,0,0,0,.273.784.857.857,0,0,0,.666.305.891.891,0,0,0,.629-.235.781.781,0,0,0,.253-.6.807.807,0,0,0-.216-.6,1.957,1.957,0,0,0-.7-.395,3.229,3.229,0,0,1-1.033-.535,1.158,1.158,0,0,1-.318-.91,1.344,1.344,0,0,1,.427-1,1.439,1.439,0,0,1,1.037-.413,1.421,1.421,0,0,1,1.028.366,1.446,1.446,0,0,1,.408,1.023h-.694a.719.719,0,0,0-.779-.75.712.712,0,0,0-.53.216.762.762,0,0,0,.164,1.183,2.322,2.322,0,0,0,.54.221,4.513,4.513,0,0,1,.465.154,1.5,1.5,0,0,1,.465,2.464,1.614,1.614,0,0,1-1.15.427,1.5,1.5,0,0,1-1.14-.46A1.816,1.816,0,0,1,211.863,231.973Z" transform="translate(-211.863 -228.388)" fill="#4ba99c"/></g><g transform="translate(55.94 20.116)"><path d="M222.765,231.034v-4.392h-.958V226h.958v-1.633h.647V226h.958v.647h-.958v4.392Z" transform="translate(-221.807 -224.362)" fill="#4ba99c"/></g><g transform="translate(58.642 21.636)"><path d="M233.567,232.793a2.062,2.062,0,0,1-.816.68,2.536,2.536,0,0,1-1.117.249,2.451,2.451,0,0,1-1.849-.766,2.752,2.752,0,0,1,.014-3.754,2.528,2.528,0,0,1,1.891-.765,2.2,2.2,0,0,1,1.877.92v-.807h.63v5.039h-.63v-.8Zm0-1.755a1.952,1.952,0,0,0-.577-1.4,1.791,1.791,0,0,0-1.319-.6,1.852,1.852,0,0,0-1.375.591,2.048,2.048,0,0,0-.577,1.492,1.928,1.928,0,0,0,.577,1.426,1.865,1.865,0,0,0,1.356.572,1.806,1.806,0,0,0,1.332-.6A2.044,2.044,0,0,0,233.567,231.037Z" transform="translate(-229.053 -228.438)" fill="#4ba99c"/></g><g transform="translate(64.947 21.749)"><path d="M245.959,228.741h.638v2.674a2.557,2.557,0,0,0,.314,1.431,1.268,1.268,0,0,0,1.122.455,1.391,1.391,0,0,0,1.3-.685,1.242,1.242,0,0,0,.15-.408,2.987,2.987,0,0,0,.056-.427q.009-.187.009-.563v-2.477h.647v5.039h-.647v-.544a1.887,1.887,0,0,1-1.53.676,1.868,1.868,0,0,1-1.6-.615,3.234,3.234,0,0,1-.459-1.929Z" transform="translate(-245.959 -228.741)" fill="#4ba99c"/></g><g transform="translate(70.353 21.674)"><path d="M261.113,233.653h-.658v-5.039h.611v.581a1.42,1.42,0,0,1,1.182-.656v.7a1.2,1.2,0,0,0-.886.38,1.618,1.618,0,0,0-.248.99Z" transform="translate(-260.455 -228.539)" fill="#4ba99c"/></g><g transform="translate(72.334 21.636)"><path d="M270.28,232.793a2.062,2.062,0,0,1-.816.68,2.535,2.535,0,0,1-1.117.249,2.451,2.451,0,0,1-1.849-.766,2.753,2.753,0,0,1,.014-3.754,2.53,2.53,0,0,1,1.891-.765,2.2,2.2,0,0,1,1.876.92v-.807h.63v5.039h-.63Zm0-1.755a1.952,1.952,0,0,0-.577-1.4,1.789,1.789,0,0,0-1.319-.6,1.852,1.852,0,0,0-1.375.591,2.05,2.05,0,0,0-.577,1.492,1.929,1.929,0,0,0,.577,1.426,1.865,1.865,0,0,0,1.356.572,1.805,1.805,0,0,0,1.332-.6A2.044,2.044,0,0,0,270.28,231.037Z" transform="translate(-265.766 -228.438)" fill="#4ba99c"/></g><g transform="translate(78.657 21.646)"><path d="M282.721,228.567h.629v.572a2,2,0,0,1,1.586-.675,1.842,1.842,0,0,1,1.671.8,1.883,1.883,0,0,1,.263.695,6.29,6.29,0,0,1,.066,1.014v2.636H286.3v-2.824a2.009,2.009,0,0,0-.338-1.291,1.347,1.347,0,0,0-1.1-.408,1.378,1.378,0,0,0-1.3.685,1.336,1.336,0,0,0-.15.418,2.926,2.926,0,0,0-.056.418c-.007.119-.009.3-.009.553v2.449h-.629v-5.038Z" transform="translate(-282.721 -228.464)" fill="#4ba99c"/></g><g transform="translate(83.538 20.116)"><path d="M296.768,231.034v-4.392h-.957V226h.957v-1.633h.647V226h.957v.647h-.957v4.392Z" transform="translate(-295.811 -224.362)" fill="#4ba99c"/></g><path d="M125.513,130.439l58.239-.175c-5.432-9.679-16.544-16.312-29.371-16.312-12.842,0-23.444,6.721-28.868,16.486" transform="translate(-105.484 -135.012)" fill="#bc9f73" fill-rule="evenodd"/><path d="M183.689,254.111l-58.421.17c5.449,9.383,16.6,15.813,29.462,15.813,12.883,0,23.518-6.515,28.959-15.983" transform="translate(-105.33 -222.901)" fill="#bc9f73" fill-rule="evenodd"/></g></g></svg>
